<svg xmlns="http://www.w3.org/2000/svg" xmlns:xlink="http://www.w3.org/1999/xlink" width="2240" zoomAndPan="magnify" viewBox="0 0 1680 944.999993" height="1260" preserveAspectRatio="xMidYMid meet" version="1.0"><defs><g/><clipPath id="758894fddd"><path d="M 95 303.792969 L 352 303.792969 L 352 570.792969 L 95 570.792969 Z M 95 303.792969 " clip-rule="nonzero"/></clipPath><clipPath id="2d8bde01d0"><path d="M 94.5 378.792969 L 94.5 495.441406 C 94.5 536.863281 128.078125 570.441406 169.5 570.441406 L 277.820312 570.441406 C 319.238281 570.441406 352.820312 536.863281 352.820312 495.441406 L 352.820312 378.792969 C 352.820312 337.371094 319.238281 303.792969 277.820312 303.792969 L 169.5 303.792969 C 128.078125 303.792969 94.5 337.371094 94.5 378.792969 Z M 94.5 378.792969 " clip-rule="nonzero"/></clipPath></defs><g fill="currentColor" fill-opacity="1"><g transform="translate(419.932665, 549.617028)"><g><path d="M 176.03125 -225.9375 L 176.03125 -215.390625 L 15.1875 -215.390625 L 15.1875 -215.078125 L 57.953125 -172.3125 L 176.03125 -172.3125 L 176.03125 -129.546875 L 57.953125 -129.546875 L 57.953125 -172.3125 L 15.1875 -172.3125 L 15.1875 -0.9375 L 57.953125 -0.9375 L 57.953125 -86.46875 L 176.03125 -86.46875 L 176.03125 -0.9375 L 218.8125 -0.9375 L 218.8125 -172.3125 L 229.65625 -172.3125 Z M 176.03125 -225.9375 "/></g></g></g><g fill="currentColor" fill-opacity="1"><g transform="translate(664.461078, 549.617028)"><g><path d="M 179.140625 -225.625 L 179.140625 -194.625 L 112.8125 -119.3125 L 61.046875 -172.9375 L 22.625 -172.9375 L 22.625 -151.546875 L 84.609375 -87.703125 L 7.4375 -0.625 L 64.78125 -0.625 L 114.671875 -56.71875 L 168.28125 -1.546875 L 225.625 -1.546875 L 142.5625 -88.328125 L 216.640625 -172 L 232.75 -172 Z M 61.046875 -172.9375 L 61.359375 -172.9375 L 61.359375 -216.015625 L 18.28125 -216.015625 Z M 61.046875 -172.9375 "/></g></g></g><g fill="currentColor" fill-opacity="1"><g transform="translate(904.650628, 549.617028)"><g><path d="M 15.1875 -225.9375 L 68.796875 -172.3125 L 57.953125 -172.3125 L 57.953125 -0.9375 L 15.1875 -0.9375 L 15.1875 -172.3125 L 40.59375 -172.3125 L 15.1875 -198.046875 Z M 15.1875 -225.9375 "/></g></g></g><g fill="currentColor" fill-opacity="1"><g transform="translate(988.329549, 549.617028)"><g><path d="M 186.578125 -225.9375 L 240.1875 -172.3125 L 229.65625 -172.3125 L 229.65625 -0.9375 L 15.1875 -0.9375 L 15.1875 -172.3125 L 57.953125 -172.3125 L 57.953125 -43.703125 L 186.578125 -43.703125 L 186.578125 -172.3125 L 57.953125 -172.3125 L 15.1875 -215.078125 L 15.1875 -215.390625 L 186.578125 -215.390625 Z M 186.578125 -225.9375 "/></g></g></g><g fill="currentColor" fill-opacity="1"><g transform="translate(1243.705271, 549.617028)"><g><path d="M 229.65625 -225.9375 L 229.65625 -215.390625 L 165.1875 -215.390625 L 143.796875 -193.703125 L 122.421875 -215.390625 L 15.1875 -215.390625 L 15.1875 -215.078125 L 57.953125 -172.3125 L 122.421875 -172.3125 L 122.421875 -0.9375 L 165.1875 -0.9375 L 165.1875 -172.3125 L 229.65625 -172.3125 L 229.65625 -0.9375 L 272.421875 -0.9375 L 272.421875 -172.3125 L 283.265625 -172.3125 Z M 57.953125 -172.3125 L 15.1875 -172.3125 L 15.1875 -0.9375 L 57.953125 -0.9375 Z M 57.953125 -172.3125 "/></g></g></g><g clip-path="url(#758894fddd)"><g clip-path="url(#2d8bde01d0)"><path fill="currentColor" d="M 160.003906 390.597656 L 96.089844 562.164062 C 94.53125 566.34375 97.613281 570.796875 102.0625 570.796875 L 156.425781 570.796875 C 159.128906 570.796875 161.539062 569.085938 162.4375 566.53125 L 177.621094 523.453125 L 195.988281 468.273438 C 196.421875 466.972656 196.425781 465.566406 196 464.261719 L 172.039062 390.847656 C 170.160156 385.101562 162.113281 384.933594 160.003906 390.597656 Z M 250.257812 303.785156 L 201.757812 303.785156 C 197.375 303.785156 194.296875 308.121094 195.734375 312.273438 L 222.972656 390.996094 L 223.007812 390.886719 L 267.695312 523.453125 L 283.191406 566.570312 C 284.105469 569.105469 286.503906 570.796875 289.191406 570.796875 L 344.910156 570.796875 C 349.359375 570.796875 352.441406 566.34375 350.882812 562.167969 L 256.234375 307.945312 C 255.300781 305.445312 252.921875 303.785156 250.257812 303.785156 " fill-opacity="1" fill-rule="nonzero"/></g></g><g fill="currentColor" fill-opacity="1"><g transform="translate(97.089845, 666.040427)"><g><path d="M 49.398438 -30.398438 L 49.398438 -38 C 49.398438 -40.074219 48.652344 -41.863281 47.15625 -43.355469 C 45.660156 -44.851562 43.875 -45.597656 41.796875 -45.597656 L 11.398438 -45.597656 L 11.398438 -22.800781 L 41.796875 -22.800781 C 43.875 -22.800781 45.660156 -23.546875 47.15625 -25.042969 C 48.652344 -26.535156 49.398438 -28.320312 49.398438 -30.398438 Z M 57 -38 L 57 -30.398438 C 57 -27.714844 56.328125 -25.21875 54.984375 -22.914062 C 53.640625 -20.609375 51.816406 -18.746094 49.511719 -17.328125 C 47.207031 -15.910156 44.636719 -15.199219 41.796875 -15.199219 L 11.398438 -15.199219 L 11.398438 0 L 3.800781 0 L 3.800781 -53.199219 L 41.796875 -53.199219 C 44.535156 -53.199219 47.03125 -52.515625 49.285156 -51.144531 C 51.539062 -49.777344 53.375 -47.953125 54.792969 -45.675781 C 56.210938 -43.394531 56.949219 -40.835938 57 -38 Z M 57 -38 "/></g></g></g><g fill="currentColor" fill-opacity="1"><g transform="translate(156.366805, 666.040427)"><g><path d="M 49.398438 -15.199219 L 49.398438 -53.199219 L 57 -53.199219 L 57 -15.199219 C 57 -12.515625 56.328125 -10.019531 54.984375 -7.714844 C 53.640625 -5.410156 51.816406 -3.546875 49.511719 -2.128906 C 47.207031 -0.710938 44.636719 0 41.796875 0 L 19 0 C 16.3125 0 13.804688 -0.671875 11.476562 -2.015625 C 9.144531 -3.355469 7.28125 -5.179688 5.890625 -7.484375 C 4.496094 -9.789062 3.800781 -12.363281 3.800781 -15.199219 L 3.800781 -53.199219 L 11.398438 -53.199219 L 11.398438 -15.199219 C 11.398438 -13.121094 12.148438 -11.335938 13.640625 -9.839844 C 15.136719 -8.347656 16.921875 -7.601562 19 -7.601562 L 41.796875 -7.601562 C 43.875 -7.601562 45.660156 -8.347656 47.15625 -9.839844 C 48.652344 -11.335938 49.398438 -13.121094 49.398438 -15.199219 Z M 49.398438 -15.199219 "/></g></g></g><g fill="currentColor" fill-opacity="1"><g transform="translate(217.163688, 666.040427)"><g><path d="M 56.238281 -15.199219 C 56.238281 -12.515625 55.566406 -10.019531 54.222656 -7.714844 C 52.882812 -5.410156 51.058594 -3.546875 48.753906 -2.128906 C 46.445312 -0.710938 43.875 0 41.039062 0 L 18.238281 0 C 15.503906 0 12.996094 -0.671875 10.714844 -2.015625 C 8.4375 -3.355469 6.613281 -5.179688 5.242188 -7.484375 C 3.875 -9.789062 3.140625 -12.363281 3.039062 -15.199219 L 10.640625 -15.199219 C 10.640625 -13.121094 11.386719 -11.335938 12.882812 -9.839844 C 14.375 -8.347656 16.164062 -7.601562 18.238281 -7.601562 L 41.039062 -7.601562 C 43.117188 -7.601562 44.902344 -8.347656 46.394531 -9.839844 C 47.890625 -11.335938 48.636719 -13.121094 48.636719 -15.199219 C 48.636719 -17.277344 47.890625 -19.0625 46.394531 -20.558594 C 44.902344 -22.050781 43.117188 -22.800781 41.039062 -22.800781 L 18.238281 -22.800781 C 15.554688 -22.800781 13.046875 -23.46875 10.714844 -24.8125 C 8.386719 -26.15625 6.523438 -27.980469 5.128906 -30.285156 C 3.738281 -32.589844 3.039062 -35.160156 3.039062 -38 C 3.039062 -40.683594 3.710938 -43.179688 5.054688 -45.484375 C 6.394531 -47.789062 8.21875 -49.652344 10.527344 -51.070312 C 12.832031 -52.488281 15.402344 -53.199219 18.238281 -53.199219 L 41.039062 -53.199219 C 43.773438 -53.199219 46.269531 -52.515625 48.523438 -51.144531 C 50.777344 -49.777344 52.617188 -47.953125 54.035156 -45.675781 C 55.453125 -43.394531 56.1875 -40.835938 56.238281 -38 L 48.636719 -38 C 48.636719 -40.074219 47.890625 -41.863281 46.394531 -43.355469 C 44.902344 -44.851562 43.117188 -45.597656 41.039062 -45.597656 L 18.238281 -45.597656 C 16.164062 -45.597656 14.375 -44.851562 12.882812 -43.355469 C 11.386719 -41.863281 10.640625 -40.074219 10.640625 -38 C 10.640625 -35.921875 11.386719 -34.136719 12.882812 -32.640625 C 14.375 -31.144531 16.164062 -30.398438 18.238281 -30.398438 L 41.039062 -30.398438 C 43.722656 -30.398438 46.21875 -29.714844 48.523438 -28.347656 C 50.828125 -26.980469 52.691406 -25.15625 54.109375 -22.875 C 55.527344 -20.59375 56.238281 -18.035156 56.238281 -15.199219 Z M 56.238281 -15.199219 "/></g></g></g><g fill="currentColor" fill-opacity="1"><g transform="translate(276.440648, 666.040427)"><g><path d="M 11.398438 -53.199219 L 11.398438 -30.398438 L 49.398438 -30.398438 L 49.398438 -53.199219 L 57 -53.199219 L 57 0 L 49.398438 0 L 49.398438 -22.800781 L 11.398438 -22.800781 L 11.398438 0 L 3.800781 0 L 3.800781 -53.199219 Z M 11.398438 -53.199219 "/></g></g></g><g fill="currentColor" fill-opacity="1"><g transform="translate(337.237531, 666.040427)"><g><path d="M 3.800781 -53.199219 L 11.398438 -53.199219 L 11.398438 0 L 3.800781 0 Z M 3.800781 -53.199219 "/></g></g></g><g fill="currentColor" fill-opacity="1"><g transform="translate(352.436749, 666.040427)"><g><path d="M 57 -53.199219 L 57 0 L 49.398438 0 L 11.398438 -40.886719 L 11.398438 0 L 3.800781 0 L 3.800781 -53.199219 L 11.398438 -53.199219 L 49.398438 -12.917969 L 49.398438 -53.199219 Z M 57 -53.199219 "/></g></g></g><g fill="currentColor" fill-opacity="1"><g transform="translate(413.233644, 666.040427)"><g><path d="M 25.839844 -22.800781 L 25.839844 -30.398438 L 56.238281 -30.398438 L 56.238281 -15.199219 C 56.238281 -12.515625 55.566406 -10.019531 54.222656 -7.714844 C 52.882812 -5.410156 51.058594 -3.546875 48.753906 -2.128906 C 46.445312 -0.710938 43.875 0 41.039062 0 L 18.238281 0 C 15.554688 0 13.046875 -0.671875 10.714844 -2.015625 C 8.386719 -3.355469 6.523438 -5.179688 5.128906 -7.484375 C 3.738281 -9.789062 3.039062 -12.363281 3.039062 -15.199219 L 3.039062 -38 C 3.039062 -40.683594 3.710938 -43.179688 5.054688 -45.484375 C 6.394531 -47.789062 8.21875 -49.652344 10.527344 -51.070312 C 12.832031 -52.488281 15.402344 -53.199219 18.238281 -53.199219 L 41.039062 -53.199219 C 43.773438 -53.199219 46.269531 -52.515625 48.523438 -51.144531 C 50.777344 -49.777344 52.617188 -47.953125 54.035156 -45.675781 C 55.453125 -43.394531 56.1875 -40.835938 56.238281 -38 L 48.636719 -38 C 48.636719 -40.074219 47.890625 -41.863281 46.394531 -43.355469 C 44.902344 -44.851562 43.117188 -45.597656 41.039062 -45.597656 L 18.238281 -45.597656 C 16.164062 -45.597656 14.375 -44.851562 12.882812 -43.355469 C 11.386719 -41.863281 10.640625 -40.074219 10.640625 -38 L 10.640625 -15.199219 C 10.640625 -13.121094 11.386719 -11.335938 12.882812 -9.839844 C 14.375 -8.347656 16.164062 -7.601562 18.238281 -7.601562 L 41.039062 -7.601562 C 43.117188 -7.601562 44.902344 -8.347656 46.394531 -9.839844 C 47.890625 -11.335938 48.636719 -13.121094 48.636719 -15.199219 L 48.636719 -22.800781 Z M 25.839844 -22.800781 "/></g></g></g><g fill="currentColor" fill-opacity="1"><g transform="translate(472.510604, 666.040427)"><g/></g></g><g fill="currentColor" fill-opacity="1"><g transform="translate(502.90904, 666.040427)"><g><path d="M 53.199219 -45.597656 L 30.398438 -45.597656 L 30.398438 0 L 22.800781 0 L 22.800781 -45.597656 L 0 -45.597656 L 0 -53.199219 L 53.199219 -53.199219 Z M 53.199219 -45.597656 "/></g></g></g><g fill="currentColor" fill-opacity="1"><g transform="translate(556.106303, 666.040427)"><g><path d="M 11.398438 -53.199219 L 11.398438 -30.398438 L 49.398438 -30.398438 L 49.398438 -53.199219 L 57 -53.199219 L 57 0 L 49.398438 0 L 49.398438 -22.800781 L 11.398438 -22.800781 L 11.398438 0 L 3.800781 0 L 3.800781 -53.199219 Z M 11.398438 -53.199219 "/></g></g></g><g fill="currentColor" fill-opacity="1"><g transform="translate(616.903175, 666.040427)"><g><path d="M 11.398438 -45.597656 L 11.398438 -30.398438 L 49.398438 -30.398438 L 49.398438 -22.800781 L 11.398438 -22.800781 L 11.398438 -7.601562 L 57 -7.601562 L 57 0 L 3.800781 0 L 3.800781 -53.199219 L 57 -53.199219 L 57 -45.597656 Z M 11.398438 -45.597656 "/></g></g></g><g fill="currentColor" fill-opacity="1"><g transform="translate(676.180135, 666.040427)"><g/></g></g><g fill="currentColor" fill-opacity="1"><g transform="translate(706.578571, 666.040427)"><g><path d="M 11.398438 -53.199219 L 11.398438 -7.601562 L 57 -7.601562 L 57 0 L 3.800781 0 L 3.800781 -53.199219 Z M 11.398438 -53.199219 "/></g></g></g><g fill="currentColor" fill-opacity="1"><g transform="translate(763.575639, 666.040427)"><g><path d="M 3.800781 -53.199219 L 11.398438 -53.199219 L 11.398438 0 L 3.800781 0 Z M 3.800781 -53.199219 "/></g></g></g><g fill="currentColor" fill-opacity="1"><g transform="translate(778.774857, 666.040427)"><g><path d="M 34.199219 -6.6875 L 11.398438 -39.59375 L 11.398438 0 L 3.800781 0 L 3.800781 -53.199219 L 11.398438 -53.199219 L 34.199219 -20.292969 L 57 -53.199219 L 64.597656 -53.199219 L 64.597656 0 L 57 0 L 57 -39.59375 Z M 34.199219 -6.6875 "/></g></g></g><g fill="currentColor" fill-opacity="1"><g transform="translate(847.171338, 666.040427)"><g><path d="M 3.800781 -53.199219 L 11.398438 -53.199219 L 11.398438 0 L 3.800781 0 Z M 3.800781 -53.199219 "/></g></g></g><g fill="currentColor" fill-opacity="1"><g transform="translate(862.370556, 666.040427)"><g><path d="M 53.199219 -45.597656 L 30.398438 -45.597656 L 30.398438 0 L 22.800781 0 L 22.800781 -45.597656 L 0 -45.597656 L 0 -53.199219 L 53.199219 -53.199219 Z M 53.199219 -45.597656 "/></g></g></g><g fill="currentColor" fill-opacity="1"><g transform="translate(915.567773, 666.040427)"><g><path d="M 56.238281 -15.199219 C 56.238281 -12.515625 55.566406 -10.019531 54.222656 -7.714844 C 52.882812 -5.410156 51.058594 -3.546875 48.753906 -2.128906 C 46.445312 -0.710938 43.875 0 41.039062 0 L 18.238281 0 C 15.503906 0 12.996094 -0.671875 10.714844 -2.015625 C 8.4375 -3.355469 6.613281 -5.179688 5.242188 -7.484375 C 3.875 -9.789062 3.140625 -12.363281 3.039062 -15.199219 L 10.640625 -15.199219 C 10.640625 -13.121094 11.386719 -11.335938 12.882812 -9.839844 C 14.375 -8.347656 16.164062 -7.601562 18.238281 -7.601562 L 41.039062 -7.601562 C 43.117188 -7.601562 44.902344 -8.347656 46.394531 -9.839844 C 47.890625 -11.335938 48.636719 -13.121094 48.636719 -15.199219 C 48.636719 -17.277344 47.890625 -19.0625 46.394531 -20.558594 C 44.902344 -22.050781 43.117188 -22.800781 41.039062 -22.800781 L 18.238281 -22.800781 C 15.554688 -22.800781 13.046875 -23.46875 10.714844 -24.8125 C 8.386719 -26.15625 6.523438 -27.980469 5.128906 -30.285156 C 3.738281 -32.589844 3.039062 -35.160156 3.039062 -38 C 3.039062 -40.683594 3.710938 -43.179688 5.054688 -45.484375 C 6.394531 -47.789062 8.21875 -49.652344 10.527344 -51.070312 C 12.832031 -52.488281 15.402344 -53.199219 18.238281 -53.199219 L 41.039062 -53.199219 C 43.773438 -53.199219 46.269531 -52.515625 48.523438 -51.144531 C 50.777344 -49.777344 52.617188 -47.953125 54.035156 -45.675781 C 55.453125 -43.394531 56.1875 -40.835938 56.238281 -38 L 48.636719 -38 C 48.636719 -40.074219 47.890625 -41.863281 46.394531 -43.355469 C 44.902344 -44.851562 43.117188 -45.597656 41.039062 -45.597656 L 18.238281 -45.597656 C 16.164062 -45.597656 14.375 -44.851562 12.882812 -43.355469 C 11.386719 -41.863281 10.640625 -40.074219 10.640625 -38 C 10.640625 -35.921875 11.386719 -34.136719 12.882812 -32.640625 C 14.375 -31.144531 16.164062 -30.398438 18.238281 -30.398438 L 41.039062 -30.398438 C 43.722656 -30.398438 46.21875 -29.714844 48.523438 -28.347656 C 50.828125 -26.980469 52.691406 -25.15625 54.109375 -22.875 C 55.527344 -20.59375 56.238281 -18.035156 56.238281 -15.199219 Z M 56.238281 -15.199219 "/></g></g></g><g fill="currentColor" fill-opacity="1"><g transform="translate(974.844687, 666.040427)"><g/></g></g><g fill="currentColor" fill-opacity="1"><g transform="translate(1005.243123, 666.040427)"><g><path d="M 48.636719 -15.199219 L 48.636719 -38 C 48.636719 -40.074219 47.890625 -41.863281 46.394531 -43.355469 C 44.902344 -44.851562 43.117188 -45.597656 41.039062 -45.597656 L 18.238281 -45.597656 C 16.164062 -45.597656 14.375 -44.851562 12.882812 -43.355469 C 11.386719 -41.863281 10.640625 -40.074219 10.640625 -38 L 10.640625 -15.199219 C 10.640625 -13.121094 11.386719 -11.335938 12.882812 -9.839844 C 14.375 -8.347656 16.164062 -7.601562 18.238281 -7.601562 L 41.039062 -7.601562 C 43.117188 -7.601562 44.902344 -8.347656 46.394531 -9.839844 C 47.890625 -11.335938 48.636719 -13.121094 48.636719 -15.199219 Z M 56.238281 -38 L 56.238281 -15.199219 C 56.238281 -12.414062 55.554688 -9.867188 54.1875 -7.5625 C 52.816406 -5.257812 50.980469 -3.417969 48.675781 -2.050781 C 46.371094 -0.683594 43.824219 0 41.039062 0 L 18.238281 0 C 15.453125 0 12.90625 -0.683594 10.601562 -2.050781 C 8.296875 -3.417969 6.460938 -5.257812 5.09375 -7.5625 C 3.722656 -9.867188 3.039062 -12.414062 3.039062 -15.199219 L 3.039062 -38 C 3.039062 -40.785156 3.722656 -43.332031 5.09375 -45.636719 C 6.460938 -47.941406 8.296875 -49.777344 10.601562 -51.144531 C 12.90625 -52.515625 15.453125 -53.199219 18.238281 -53.199219 L 41.039062 -53.199219 C 43.722656 -53.199219 46.21875 -52.5 48.523438 -51.109375 C 50.828125 -49.714844 52.691406 -47.878906 54.109375 -45.597656 C 55.527344 -43.320312 56.238281 -40.785156 56.238281 -38 Z M 56.238281 -38 "/></g></g></g><g fill="currentColor" fill-opacity="1"><g transform="translate(1064.520036, 666.040427)"><g><path d="M 11.398438 -45.597656 L 11.398438 -30.398438 L 49.398438 -30.398438 L 49.398438 -22.800781 L 11.398438 -22.800781 L 11.398438 0 L 3.800781 0 L 3.800781 -53.199219 L 57 -53.199219 L 57 -45.597656 Z M 11.398438 -45.597656 "/></g></g></g><g fill="currentColor" fill-opacity="1"><g transform="translate(1123.037062, 666.040427)"><g/></g></g><g fill="currentColor" fill-opacity="1"><g transform="translate(1153.435498, 666.040427)"><g><path d="M 56.238281 -15.199219 C 56.238281 -12.515625 55.566406 -10.019531 54.222656 -7.714844 C 52.882812 -5.410156 51.058594 -3.546875 48.753906 -2.128906 C 46.445312 -0.710938 43.875 0 41.039062 0 L 18.238281 0 C 15.503906 0 12.996094 -0.671875 10.714844 -2.015625 C 8.4375 -3.355469 6.613281 -5.179688 5.242188 -7.484375 C 3.875 -9.789062 3.140625 -12.363281 3.039062 -15.199219 L 10.640625 -15.199219 C 10.640625 -13.121094 11.386719 -11.335938 12.882812 -9.839844 C 14.375 -8.347656 16.164062 -7.601562 18.238281 -7.601562 L 41.039062 -7.601562 C 43.117188 -7.601562 44.902344 -8.347656 46.394531 -9.839844 C 47.890625 -11.335938 48.636719 -13.121094 48.636719 -15.199219 C 48.636719 -17.277344 47.890625 -19.0625 46.394531 -20.558594 C 44.902344 -22.050781 43.117188 -22.800781 41.039062 -22.800781 L 18.238281 -22.800781 C 15.554688 -22.800781 13.046875 -23.46875 10.714844 -24.8125 C 8.386719 -26.15625 6.523438 -27.980469 5.128906 -30.285156 C 3.738281 -32.589844 3.039062 -35.160156 3.039062 -38 C 3.039062 -40.683594 3.710938 -43.179688 5.054688 -45.484375 C 6.394531 -47.789062 8.21875 -49.652344 10.527344 -51.070312 C 12.832031 -52.488281 15.402344 -53.199219 18.238281 -53.199219 L 41.039062 -53.199219 C 43.773438 -53.199219 46.269531 -52.515625 48.523438 -51.144531 C 50.777344 -49.777344 52.617188 -47.953125 54.035156 -45.675781 C 55.453125 -43.394531 56.1875 -40.835938 56.238281 -38 L 48.636719 -38 C 48.636719 -40.074219 47.890625 -41.863281 46.394531 -43.355469 C 44.902344 -44.851562 43.117188 -45.597656 41.039062 -45.597656 L 18.238281 -45.597656 C 16.164062 -45.597656 14.375 -44.851562 12.882812 -43.355469 C 11.386719 -41.863281 10.640625 -40.074219 10.640625 -38 C 10.640625 -35.921875 11.386719 -34.136719 12.882812 -32.640625 C 14.375 -31.144531 16.164062 -30.398438 18.238281 -30.398438 L 41.039062 -30.398438 C 43.722656 -30.398438 46.21875 -29.714844 48.523438 -28.347656 C 50.828125 -26.980469 52.691406 -25.15625 54.109375 -22.875 C 55.527344 -20.59375 56.238281 -18.035156 56.238281 -15.199219 Z M 56.238281 -15.199219 "/></g></g></g><g fill="currentColor" fill-opacity="1"><g transform="translate(1212.712412, 666.040427)"><g><path d="M 18.238281 -53.199219 L 41.039062 -53.199219 C 43.773438 -53.199219 46.269531 -52.515625 48.523438 -51.144531 C 50.777344 -49.777344 52.617188 -47.953125 54.035156 -45.675781 C 55.453125 -43.394531 56.1875 -40.835938 56.238281 -38 L 48.636719 -38 C 48.636719 -40.074219 47.890625 -41.863281 46.394531 -43.355469 C 44.902344 -44.851562 43.117188 -45.597656 41.039062 -45.597656 L 18.238281 -45.597656 C 16.164062 -45.597656 14.375 -44.851562 12.882812 -43.355469 C 11.386719 -41.863281 10.640625 -40.074219 10.640625 -38 L 10.640625 -15.199219 C 10.640625 -13.121094 11.386719 -11.335938 12.882812 -9.839844 C 14.375 -8.347656 16.164062 -7.601562 18.238281 -7.601562 L 41.039062 -7.601562 C 43.117188 -7.601562 44.902344 -8.347656 46.394531 -9.839844 C 47.890625 -11.335938 48.636719 -13.121094 48.636719 -15.199219 L 56.238281 -15.199219 C 56.238281 -12.515625 55.566406 -10.019531 54.222656 -7.714844 C 52.882812 -5.410156 51.058594 -3.546875 48.753906 -2.128906 C 46.445312 -0.710938 43.875 0 41.039062 0 L 18.238281 0 C 15.554688 0 13.046875 -0.671875 10.714844 -2.015625 C 8.386719 -3.355469 6.523438 -5.179688 5.128906 -7.484375 C 3.738281 -9.789062 3.039062 -12.363281 3.039062 -15.199219 L 3.039062 -38 C 3.039062 -40.734375 3.710938 -43.242188 5.054688 -45.523438 C 6.394531 -47.800781 8.21875 -49.640625 10.527344 -51.03125 C 12.832031 -52.425781 15.402344 -53.148438 18.238281 -53.199219 Z M 18.238281 -53.199219 "/></g></g></g><g fill="currentColor" fill-opacity="1"><g transform="translate(1271.229438, 666.040427)"><g><path d="M 3.800781 -53.199219 L 11.398438 -53.199219 L 11.398438 0 L 3.800781 0 Z M 3.800781 -53.199219 "/></g></g></g><g fill="currentColor" fill-opacity="1"><g transform="translate(1286.428656, 666.040427)"><g><path d="M 11.398438 -45.597656 L 11.398438 -30.398438 L 49.398438 -30.398438 L 49.398438 -22.800781 L 11.398438 -22.800781 L 11.398438 -7.601562 L 57 -7.601562 L 57 0 L 3.800781 0 L 3.800781 -53.199219 L 57 -53.199219 L 57 -45.597656 Z M 11.398438 -45.597656 "/></g></g></g><g fill="currentColor" fill-opacity="1"><g transform="translate(1345.70557, 666.040427)"><g><path d="M 57 -53.199219 L 57 0 L 49.398438 0 L 11.398438 -40.886719 L 11.398438 0 L 3.800781 0 L 3.800781 -53.199219 L 11.398438 -53.199219 L 49.398438 -12.917969 L 49.398438 -53.199219 Z M 57 -53.199219 "/></g></g></g><g fill="currentColor" fill-opacity="1"><g transform="translate(1406.502442, 666.040427)"><g><path d="M 18.238281 -53.199219 L 41.039062 -53.199219 C 43.773438 -53.199219 46.269531 -52.515625 48.523438 -51.144531 C 50.777344 -49.777344 52.617188 -47.953125 54.035156 -45.675781 C 55.453125 -43.394531 56.1875 -40.835938 56.238281 -38 L 48.636719 -38 C 48.636719 -40.074219 47.890625 -41.863281 46.394531 -43.355469 C 44.902344 -44.851562 43.117188 -45.597656 41.039062 -45.597656 L 18.238281 -45.597656 C 16.164062 -45.597656 14.375 -44.851562 12.882812 -43.355469 C 11.386719 -41.863281 10.640625 -40.074219 10.640625 -38 L 10.640625 -15.199219 C 10.640625 -13.121094 11.386719 -11.335938 12.882812 -9.839844 C 14.375 -8.347656 16.164062 -7.601562 18.238281 -7.601562 L 41.039062 -7.601562 C 43.117188 -7.601562 44.902344 -8.347656 46.394531 -9.839844 C 47.890625 -11.335938 48.636719 -13.121094 48.636719 -15.199219 L 56.238281 -15.199219 C 56.238281 -12.515625 55.566406 -10.019531 54.222656 -7.714844 C 52.882812 -5.410156 51.058594 -3.546875 48.753906 -2.128906 C 46.445312 -0.710938 43.875 0 41.039062 0 L 18.238281 0 C 15.554688 0 13.046875 -0.671875 10.714844 -2.015625 C 8.386719 -3.355469 6.523438 -5.179688 5.128906 -7.484375 C 3.738281 -9.789062 3.039062 -12.363281 3.039062 -15.199219 L 3.039062 -38 C 3.039062 -40.734375 3.710938 -43.242188 5.054688 -45.523438 C 6.394531 -47.800781 8.21875 -49.640625 10.527344 -51.03125 C 12.832031 -52.425781 15.402344 -53.148438 18.238281 -53.199219 Z M 18.238281 -53.199219 "/></g></g></g><g fill="currentColor" fill-opacity="1"><g transform="translate(1465.019468, 666.040427)"><g><path d="M 11.398438 -45.597656 L 11.398438 -30.398438 L 49.398438 -30.398438 L 49.398438 -22.800781 L 11.398438 -22.800781 L 11.398438 -7.601562 L 57 -7.601562 L 57 0 L 3.800781 0 L 3.800781 -53.199219 L 57 -53.199219 L 57 -45.597656 Z M 11.398438 -45.597656 "/></g></g></g></svg>